<?xml version="1.0" encoding="UTF-8" standalone="no"?>
<!DOCTYPE svg PUBLIC "-//W3C//DTD SVG 1.1//EN"
 "http://www.w3.org/Graphics/SVG/1.1/DTD/svg11.dtd">
<!-- Generated by graphviz version 2.38.0 (20140413.2041)
 -->
<!-- Title: controllers_diagram Pages: 1 -->
<svg width="372pt" height="339pt"
 viewBox="0.00 0.00 371.85 339.00" xmlns="http://www.w3.org/2000/svg" xmlns:xlink="http://www.w3.org/1999/xlink">
<g id="graph0" class="graph" transform="scale(1 1) rotate(0) translate(115.821 209.5)">
<title>controllers_diagram</title>
<polygon fill="white" stroke="none" points="-115.821,129.5 -115.821,-209.5 256.033,-209.5 256.033,129.5 -115.821,129.5"/>
<!-- _diagram_info -->
<g id="node1" class="node"><title>_diagram_info</title>
<text text-anchor="start" x="-103.688" y="-17.1" font-family="Times,serif" font-size="13.00">Controllers diagram</text>
<text text-anchor="start" x="-103.688" y="-4.1" font-family="Times,serif" font-size="13.00">Date: Feb 27 2015 &#45; 17:11</text>
<text text-anchor="start" x="-103.688" y="8.9" font-family="Times,serif" font-size="13.00">Migration version: 20150227222157</text>
<text text-anchor="start" x="-103.688" y="21.9" font-family="Times,serif" font-size="13.00">Generated by RailRoady 1.3.0</text>
<text text-anchor="start" x="-103.688" y="34.9" font-family="Times,serif" font-size="13.00">http://railroady.prestonlee.com</text>
</g>
<!-- ApplicationController -->
<g id="node2" class="node"><title>ApplicationController</title>
<path fill="none" stroke="black" d="M-99.8208,-113C-99.8208,-113 15.8208,-113 15.8208,-113 21.8208,-113 27.8208,-119 27.8208,-125 27.8208,-125 27.8208,-193 27.8208,-193 27.8208,-199 21.8208,-205 15.8208,-205 15.8208,-205 -99.8208,-205 -99.8208,-205 -105.821,-205 -111.821,-199 -111.821,-193 -111.821,-193 -111.821,-125 -111.821,-125 -111.821,-119 -105.821,-113 -99.8208,-113"/>
<text text-anchor="middle" x="-42" y="-189.8" font-family="Times,serif" font-size="14.00">ApplicationController</text>
<polyline fill="none" stroke="black" points="-111.821,-183 27.8208,-183 "/>
<polyline fill="none" stroke="black" points="-111.821,-159 27.8208,-159 "/>
<polyline fill="none" stroke="black" points="-111.821,-135 27.8208,-135 "/>
<text text-anchor="start" x="-103.821" y="-119.8" font-family="Times,serif" font-size="14.00">_layout</text>
</g>
<!-- StartSessionController -->
<g id="node3" class="node"><title>StartSessionController</title>
<path fill="none" stroke="black" d="M67.6138,-57C67.6138,-57 186.386,-57 186.386,-57 192.386,-57 198.386,-63 198.386,-69 198.386,-69 198.386,-149 198.386,-149 198.386,-155 192.386,-161 186.386,-161 186.386,-161 67.6138,-161 67.6138,-161 61.6138,-161 55.6138,-155 55.6138,-149 55.6138,-149 55.6138,-69 55.6138,-69 55.6138,-63 61.6138,-57 67.6138,-57"/>
<text text-anchor="middle" x="127" y="-145.8" font-family="Times,serif" font-size="14.00">StartSessionController</text>
<polyline fill="none" stroke="black" points="55.6138,-139 198.386,-139 "/>
<text text-anchor="start" x="63.6138" y="-123.8" font-family="Times,serif" font-size="14.00">sign_in</text>
<text text-anchor="start" x="63.6138" y="-109.8" font-family="Times,serif" font-size="14.00">sign_up</text>
<polyline fill="none" stroke="black" points="55.6138,-103 198.386,-103 "/>
<polyline fill="none" stroke="black" points="55.6138,-79 198.386,-79 "/>
<text text-anchor="start" x="63.6138" y="-63.8" font-family="Times,serif" font-size="14.00">_layout</text>
</g>
<!-- WelcomeController -->
<g id="node4" class="node"><title>WelcomeController</title>
<path fill="none" stroke="black" d="M137.967,125C137.967,125 240.033,125 240.033,125 246.033,125 252.033,119 252.033,113 252.033,113 252.033,47 252.033,47 252.033,41 246.033,35 240.033,35 240.033,35 137.967,35 137.967,35 131.967,35 125.967,41 125.967,47 125.967,47 125.967,113 125.967,113 125.967,119 131.967,125 137.967,125"/>
<text text-anchor="middle" x="189" y="50.2" font-family="Times,serif" font-size="14.00">WelcomeController</text>
<polyline fill="none" stroke="black" points="125.967,57 252.033,57 "/>
<text text-anchor="start" x="133.967" y="72.2" font-family="Times,serif" font-size="14.00">index</text>
<polyline fill="none" stroke="black" points="125.967,79 252.033,79 "/>
<polyline fill="none" stroke="black" points="125.967,103 252.033,103 "/>
<text text-anchor="start" x="133.967" y="118.2" font-family="Times,serif" font-size="14.00">_layout</text>
</g>
</g>
</svg>
