<?xml version="1.0" encoding="UTF-8" standalone="no"?>
<!DOCTYPE svg PUBLIC "-//W3C//DTD SVG 1.1//EN"
 "http://www.w3.org/Graphics/SVG/1.1/DTD/svg11.dtd">
<!-- Generated by graphviz version 2.38.0 (20140413.2041)
 -->
<!-- Title: models_diagram Pages: 1 -->
<svg width="366pt" height="95pt"
 viewBox="0.00 0.00 366.19 95.00" xmlns="http://www.w3.org/2000/svg" xmlns:xlink="http://www.w3.org/1999/xlink">
<g id="graph0" class="graph" transform="scale(1 1) rotate(0) translate(4 91)">
<title>models_diagram</title>
<polygon fill="white" stroke="none" points="-4,4 -4,-91 362.193,-91 362.193,4 -4,4"/>
<!-- _diagram_info -->
<g id="node1" class="node"><title>_diagram_info</title>
<text text-anchor="start" x="8" y="-65.6" font-family="Times,serif" font-size="13.00">Models diagram</text>
<text text-anchor="start" x="8" y="-52.6" font-family="Times,serif" font-size="13.00">Date: Feb 27 2015 &#45; 17:11</text>
<text text-anchor="start" x="8" y="-39.6" font-family="Times,serif" font-size="13.00">Migration version: 20150227222157</text>
<text text-anchor="start" x="8" y="-26.6" font-family="Times,serif" font-size="13.00">Generated by RailRoady 1.3.0</text>
<text text-anchor="start" x="8" y="-13.6" font-family="Times,serif" font-size="13.00">http://railroady.prestonlee.com</text>
</g>
<!-- User -->
<g id="node2" class="node"><title>User</title>
<path fill="none" stroke="black" d="M237.182,-0.5C237.182,-0.5 346.193,-0.5 346.193,-0.5 352.193,-0.5 358.193,-6.5 358.193,-12.5 358.193,-12.5 358.193,-74.5 358.193,-74.5 358.193,-80.5 352.193,-86.5 346.193,-86.5 346.193,-86.5 237.182,-86.5 237.182,-86.5 231.182,-86.5 225.182,-80.5 225.182,-74.5 225.182,-74.5 225.182,-12.5 225.182,-12.5 225.182,-6.5 231.182,-0.5 237.182,-0.5"/>
<text text-anchor="middle" x="291.688" y="-71.3" font-family="Times,serif" font-size="14.00">User</text>
<polyline fill="none" stroke="black" points="225.182,-64.5 358.193,-64.5 "/>
<text text-anchor="start" x="233.182" y="-49.3" font-family="Times,serif" font-size="14.00">id :integer</text>
<text text-anchor="start" x="233.182" y="-35.3" font-family="Times,serif" font-size="14.00">email :string</text>
<text text-anchor="start" x="233.182" y="-21.3" font-family="Times,serif" font-size="14.00">created_at :datetime</text>
<text text-anchor="start" x="233.182" y="-7.3" font-family="Times,serif" font-size="14.00">updated_at :datetime</text>
</g>
</g>
</svg>
